<svg xmlns="http://www.w3.org/2000/svg" version="1.1" xmlns:xlink="http://www.w3.org/1999/xlink" xmlns:svgjs="http://svgjs.dev/svgjs" width="100px" height="100px"><svg xmlns="http://www.w3.org/2000/svg" viewBox="0 0 100 100" width="100px" height="100px"><path d="M91,30.175V29.5c0-3.584-2.916-6.5-6.5-6.5H48.246C45,23,43.94,18,40.5,18h-15c-4.975,0-9.153,3.477-10.23,8.129 c-1.625,0.936-2.913,2.394-3.633,4.143C8.958,31.075,7,33.563,7,36.5v11.368C7,55.18,7.997,62.46,9.963,69.506l2.46,8.816 C13.686,82.844,17.845,86,22.537,86h57.927c4.692,0,8.851-3.156,10.113-7.676l2.46-8.818C95.003,62.46,96,55.181,96,47.868V36.5 C96,33.432,93.863,30.854,91,30.175z" opacity=".35"></path><path fill="#f2f2f2" d="M89,28.175V27.5c0-3.584-2.916-6.5-6.5-6.5H46.246c-1.336-2.946-4.306-5-7.746-5h-15 c-4.975,0-9.153,3.477-10.23,8.129c-1.625,0.936-2.913,2.394-3.633,4.143C6.958,29.075,5,31.563,5,34.5v11.368 C5,53.18,5.997,60.46,7.963,67.506l2.46,8.816C11.686,80.844,15.845,84,20.537,84h57.927c4.692,0,8.851-3.156,10.113-7.676 l2.46-8.818C93.003,60.46,94,53.181,94,45.868V34.5C94,31.432,91.863,28.854,89,28.175z"></path><path fill="#739f4d" d="M83,35v-7H41v-3c0-1.104-0.895-2-2-2H24c-2.209,0-4,1.791-4,4v3h-4v5h-4v11.368 c0,6.723,0.916,13.415,2.723,19.891l2.46,8.816C17.666,76.804,19.242,78,21.037,78h57.927c1.795,0,3.37-1.196,3.853-2.925 l2.46-8.816C87.084,59.783,88,53.091,88,46.368V35H83z"></path><path fill="#407845" d="M83,35v-7H41v-3c0-1.104-0.895-2-2-2H24c-2.209,0-4,1.791-4,4v3h-4v5h-4v1h76v-1H83z"></path><path fill="#40396e" d="M78.463,79H20.537c-2.458,0-4.636-1.653-5.298-4.021l-2.46-8.816C10.935,59.555,10,52.727,10,45.868V34.5 c0-0.828,0.671-1.5,1.5-1.5H14v-1.5c0-1.93,1.57-3.5,3.5-3.5H18v-1.5c0-3.032,2.467-5.5,5.5-5.5h15c1.93,0,3.5,1.57,3.5,3.5V26 h40.5c0.829,0,1.5,0.672,1.5,1.5V33h3.5c0.829,0,1.5,0.672,1.5,1.5v11.368c0,6.858-0.935,13.687-2.779,20.294l-2.46,8.816 C83.1,77.347,80.921,79,78.463,79z M13,36v9.868c0,6.586,0.898,13.143,2.668,19.487l2.46,8.816 C18.429,75.248,19.419,76,20.537,76h57.927c1.117,0,2.107-0.752,2.408-1.828l2.46-8.816C85.102,59.011,86,52.454,86,45.868V36 h-3.5c-0.829,0-1.5-0.672-1.5-1.5V29H40.5c-0.829,0-1.5-0.672-1.5-1.5v-3c0-0.275-0.224-0.5-0.5-0.5h-15 c-1.378,0-2.5,1.121-2.5,2.5v3c0,0.828-0.671,1.5-1.5,1.5h-2c-0.276,0-0.5,0.225-0.5,0.5v3c0,0.828-0.671,1.5-1.5,1.5H13z"></path><rect width="75" height="3" x="12" y="33" fill="#40396e" opacity=".35"></rect><rect width="10" height="10" x="34" y="44" fill="#40396e"></rect><polygon fill="#40396e" points="54,58 54,54 44,54 44,58 39,58 39,70 44,70 44,65 54,65 54,70 59,70 59,65 59,58"></polygon><rect width="10" height="10" x="54" y="44" fill="#40396e"></rect></svg><style>@media (prefers-color-scheme: light) { :root { filter: none; } }
@media (prefers-color-scheme: dark) { :root { filter: none; } }
</style></svg>