<?xml version="1.0" encoding="UTF-8"?>
<svg id="vlpa" width="500px" height="88.1px" style="enable-background:new 0 0 500 88.08" version="1.1" viewBox="0 0 500 88.1" xml:space="preserve" xmlns="http://www.w3.org/2000/svg" xmlns:cc="http://creativecommons.org/ns#" xmlns:dc="http://purl.org/dc/elements/1.1/" xmlns:rdf="http://www.w3.org/1999/02/22-rdf-syntax-ns#"><title>Toradora logo</title><metadata><rdf:RDF><cc:Work rdf:about=""><dc:format>image/svg+xml</dc:format><dc:type rdf:resource="http://purl.org/dc/dcmitype/StillImage"/><dc:title/></cc:Work></rdf:RDF></metadata>

	
		<circle cx="147" cy="44" r="44" style="fill:#fff"/>
		<circle cx="251" cy="44" r="44" style="fill:#fff"/>
		<circle cx="353" cy="44" r="44" style="fill:#fff"/>
		<circle cx="456" cy="44" r="44" style="fill:#fff"/>
		<circle cx="44" cy="44" r="44" style="fill:#fff"/>
	
	<path d="m79.1 17.5-42 45.8h31.9c2.32 0 4.21 1.88 4.21 4.21 0 2.32-1.88 4.21-4.21 4.21h-41.5c-1.67 0-3.18-0.986-3.85-2.52s-0.379-3.31 0.75-4.54l20.7-22.5-22.4-22.4c-1.64-1.64-1.64-4.31 0-5.95 1.64-1.64 4.31-1.64 5.95 0l22.2 22.2 22.6-24.6c-7.79-6.98-18.1-11.2-29.4-11.2-24.3 0-44 19.7-44 44 0 24.3 19.7 44 44 44 24.3 0 44-19.7 44-44 0-9.99-3.33-19.2-8.94-26.6z" style="fill:#f3399a"/>
	<path d="m147 0c-24.3 0-44 19.7-44 44 0 22.8 17.3 41.6 39.5 43.8l20.6-32h-33c-2.32 0-4.21-1.88-4.21-4.21v-29.9c0-2.32 1.88-4.21 4.21-4.21 2.32 0 4.21 1.88 4.21 4.21v25.7h36.5c1.54 0 2.96 0.841 3.7 2.19s0.678 3-0.155 4.29l-21.7 33.8c21.7-2.76 38.4-21.3 38.4-43.7-1e-3 -24.3-19.7-44-44-44zm21.1 27.6c-0.776 1.36-2.2 2.12-3.66 2.12-0.707 0-1.42-0.179-2.08-0.555l-22.9-13.1c-2.02-1.15-2.72-3.72-1.57-5.74 1.15-2.02 3.72-2.72 5.74-1.57l22.9 13.1c2.02 1.15 2.72 3.72 1.57 5.74z" style="fill:#fd8035"/>
	
					<path d="m235 43.7h59.4c-0.166-24.2-19.8-43.7-44-43.7-5.42 0-10.6 0.984-15.4 2.78zm27.1-26.5c0-2.32 1.88-4.21 4.21-4.21 2.32 0 4.21 1.88 4.21 4.21v14c0 2.32-1.88 4.21-4.21 4.21-2.32 0-4.21-1.88-4.21-4.21zm-11.1-4.21c2.32 0 4.21 1.88 4.21 4.21v14c0 2.32-1.88 4.21-4.21 4.21-2.32 0-4.21-1.88-4.21-4.21v-14c0-2.32 1.88-4.21 4.21-4.21z" style="fill:#76cce0"/>
				
				<path d="m235 52.2v21.7c0 2.32-1.88 4.21-4.21 4.21-2.32 0-4.21-1.88-4.21-4.21v-66.8c-12.2 7.84-20.2 21.5-20.2 37 0 24.3 19.7 44 44 44 21.5 0 39.5-15.5 43.3-35.9z" style="fill:#76cce0"/>
	
	<path d="m353 0c-20.8 0-38.2 14.4-42.8 33.8h71.2c1.53 0 2.94 0.834 3.69 2.18 0.741 1.34 0.692 2.98-0.126 4.28l-24.4 38.7c-0.802 1.27-2.17 1.96-3.56 1.96-0.769 0-1.55-0.21-2.24-0.65-1.97-1.24-2.55-3.84-1.31-5.81l20.3-32.2h-64.8c-0.025 0.619-0.047 1.24-0.047 1.86 0 24.3 19.7 44 44 44 24.3 0 44-19.7 44-44-2e-3 -24.3-19.7-44-44-44zm23.4 23.9h-38.8c-2.32 0-4.21-1.88-4.21-4.21 0-2.32 1.88-4.21 4.21-4.21h38.8c2.32 0 4.21 1.88 4.21 4.21 0 2.32-1.88 4.21-4.21 4.21z" style="fill:#c9ae48"/>
	<path d="m475 4.2c-7.5 5.58-9.94 13.8-6.68 23l0.573 1.6c3.38 9.38 6.57 18.2-5.04 28.4-0.799 0.699-1.79 1.04-2.77 1.04-1.17 0-2.34-0.487-3.17-1.44-1.53-1.75-1.35-4.41 0.396-5.94 7.28-6.37 5.93-10.1 2.66-19.2l-0.582-1.62c-3.84-10.8-1.7-21.3 5.5-28.9-3.11-0.699-6.34-1.08-9.67-1.08-24.3 0-44 19.7-44 44 0 24.3 19.7 44 44 44 24.3 0 44-19.7 44-44 0-17.6-10.3-32.8-25.3-39.8zm-16.4 67.6c-0.055 0.17-0.201 0.294-0.377 0.319l-6.25 0.909-2.8 5.67c-0.079 0.158-0.241 0.26-0.419 0.26-0.179 0-0.341-0.102-0.42-0.26l-2.8-5.67-6.25-0.909c-0.176-0.025-0.322-0.149-0.378-0.319-0.055-0.169-9e-3 -0.354 0.118-0.479l4.52-4.41-1.07-6.23c-0.031-0.177 0.042-0.354 0.186-0.458 0.146-0.104 0.335-0.118 0.492-0.035l5.59 2.94 5.59-2.94c0.157-0.084 0.348-0.07 0.492 0.035 0.145 0.104 0.217 0.281 0.187 0.458l-1.07 6.23 4.52 4.41c0.128 0.124 0.174 0.31 0.119 0.479z" style="fill:#f9304b"/>
</svg>